<svg width="26" height="26" viewBox="0 0 26 26" fill="none" xmlns="http://www.w3.org/2000/svg">
<circle cx="13" cy="13" r="13" fill="#1A1A26"/>
<path d="M13.2304 9.5298C12.8357 9.5298 12.4944 9.39113 12.2064 9.1138C11.929 8.8258 11.7904 8.48447 11.7904 8.0898C11.7904 7.68447 11.929 7.34313 12.2064 7.0658C12.4944 6.78847 12.8357 6.6498 13.2304 6.6498C13.6357 6.6498 13.977 6.78847 14.2544 7.0658C14.5317 7.34313 14.6704 7.68447 14.6704 8.0898C14.6704 8.48447 14.5317 8.8258 14.2544 9.1138C13.977 9.39113 13.6357 9.5298 13.2304 9.5298ZM11.9984 18.7778V12.6978H10.4944V10.8418H14.4464V18.7778H11.9984Z" fill="white"/>
</svg>
